<svg width="170" height="31" viewBox="0 0 170 31" fill="none" xmlns="http://www.w3.org/2000/svg">
<path d="M6.5098 3.86991V30.5944H0V3.86991H6.5098Z" fill="url(#paint0_linear_112_132)"/>
<path d="M19.8691 30.8989C18.0164 30.8989 16.3667 30.5817 14.9201 29.9472C13.4735 29.3127 12.3314 28.4498 11.4939 27.3585C10.6564 26.2418 10.1868 24.9982 10.0853 23.6277H16.519C16.5951 24.3637 16.9377 24.9601 17.5468 25.417C18.1559 25.8738 18.9046 26.1022 19.7929 26.1022C20.6051 26.1022 21.2268 25.9499 21.6583 25.6454C22.1151 25.3155 22.3435 24.8967 22.3435 24.3891C22.3435 23.78 22.0263 23.3359 21.3918 23.0567C20.7573 22.7521 19.7295 22.4222 18.3082 22.0669C16.7855 21.7116 15.5165 21.3436 14.5013 20.9629C13.4861 20.5568 12.6106 19.935 11.8746 19.0975C11.1386 18.2346 10.7706 17.0799 10.7706 15.6332C10.7706 14.415 11.1005 13.311 11.7604 12.3212C12.4456 11.3061 13.4354 10.5066 14.7297 9.92288C16.0495 9.33916 17.6103 9.04729 19.4122 9.04729C22.0771 9.04729 24.1709 9.70716 25.6936 11.0269C27.2418 12.3466 28.13 14.0978 28.3584 16.2804H22.3435C22.242 15.5444 21.9121 14.9607 21.3537 14.5292C20.8208 14.0978 20.1102 13.8821 19.2219 13.8821C18.4605 13.8821 17.8768 14.0343 17.4707 14.3389C17.0646 14.6181 16.8616 15.0114 16.8616 15.519C16.8616 16.1281 17.1788 16.585 17.8133 16.8895C18.4732 17.1941 19.4884 17.4986 20.8588 17.8032C22.4324 18.2092 23.714 18.6153 24.7038 19.0214C25.6936 19.4021 26.5565 20.0366 27.2925 20.9248C28.0539 21.7877 28.4473 22.9552 28.4727 24.4272C28.4727 25.6708 28.1173 26.7875 27.4067 27.7773C26.7215 28.7417 25.719 29.503 24.3993 30.0614C23.1049 30.6197 21.5949 30.8989 19.8691 30.8989Z" fill="url(#paint1_linear_112_132)"/>
<path d="M38.9651 12.8923C39.7265 11.7248 40.6782 10.8112 41.8203 10.1513C42.9624 9.46605 44.2313 9.12343 45.6272 9.12343V16.0139H43.838C42.2137 16.0139 40.9955 16.3692 40.1833 17.0799C39.3712 17.7651 38.9651 18.9833 38.9651 20.7345V30.5944H32.4553V9.35185H38.9651V12.8923Z" fill="url(#paint2_linear_112_132)"/>
<path d="M47.4444 19.935C47.4444 17.7524 47.8505 15.8363 48.6626 14.1866C49.5001 12.537 50.6295 11.268 52.0508 10.3797C53.472 9.49143 55.0582 9.04729 56.8094 9.04729C58.3068 9.04729 59.6138 9.35185 60.7305 9.96095C61.8726 10.5701 62.7481 11.3695 63.3573 12.3593V9.35185H69.8671V30.5944H63.3573V27.5869C62.7228 28.5767 61.8345 29.3762 60.6924 29.9853C59.5757 30.5944 58.2687 30.8989 56.7713 30.8989C55.0455 30.8989 53.472 30.4548 52.0508 29.5665C50.6295 28.6528 49.5001 27.3712 48.6626 25.7215C47.8505 24.0465 47.4444 22.1177 47.4444 19.935ZM63.3573 19.9731C63.3573 18.3488 62.9004 17.0672 61.9868 16.1281C61.0985 15.1891 60.0072 14.7196 58.7128 14.7196C57.4185 14.7196 56.3145 15.1891 55.4008 16.1281C54.5126 17.0418 54.0684 18.3108 54.0684 19.935C54.0684 21.5593 54.5126 22.8537 55.4008 23.8181C56.3145 24.7571 57.4185 25.2266 58.7128 25.2266C60.0072 25.2266 61.0985 24.7571 61.9868 23.8181C62.9004 22.879 63.3573 21.5974 63.3573 19.9731Z" fill="url(#paint3_linear_112_132)"/>
<path d="M94.6009 19.6305C94.6009 20.2396 94.5628 20.8741 94.4867 21.5339H79.754C79.8555 22.8537 80.2743 23.8688 81.0103 24.5795C81.7717 25.2647 82.698 25.6073 83.7893 25.6073C85.4136 25.6073 86.543 24.9221 87.1775 23.5516H94.106C93.7507 24.9475 93.1035 26.2037 92.1645 27.3204C91.2508 28.4371 90.0961 29.3127 88.7002 29.9472C87.3044 30.5817 85.7435 30.8989 84.0177 30.8989C81.9366 30.8989 80.0839 30.4548 78.4596 29.5665C76.8354 28.6782 75.5664 27.4093 74.6527 25.7596C73.7391 24.1099 73.2823 22.1811 73.2823 19.9731C73.2823 17.7651 73.7264 15.8363 74.6147 14.1866C75.5283 12.537 76.7973 11.268 78.4216 10.3797C80.0459 9.49143 81.9112 9.04729 84.0177 9.04729C86.0735 9.04729 87.9008 9.47874 89.4997 10.3416C91.0986 11.2045 92.3422 12.4354 93.2304 14.0343C94.1441 15.6332 94.6009 17.4986 94.6009 19.6305ZM87.9388 17.9174C87.9388 16.8007 87.5581 15.9124 86.7968 15.2525C86.0354 14.5927 85.0837 14.2628 83.9416 14.2628C82.8503 14.2628 81.9239 14.58 81.1626 15.2145C80.4266 15.849 79.9697 16.7499 79.7921 17.9174H87.9388Z" fill="url(#paint4_linear_112_132)"/>
<path d="M104.545 2.42329V30.5944H98.0352V2.42329H104.545Z" fill="url(#paint5_linear_112_132)"/>
<path d="M125.899 25.8738H115.925L114.326 30.5944H107.511L117.181 3.86991H124.719L134.388 30.5944H127.498L125.899 25.8738ZM124.224 20.8487L120.912 11.065L117.638 20.8487H124.224Z" fill="url(#paint6_linear_112_132)"/>
<path d="M140.605 7.14384C139.463 7.14384 138.524 6.81391 137.788 6.15405C137.077 5.46881 136.722 4.63129 136.722 3.64149C136.722 2.62632 137.077 1.7888 137.788 1.12894C138.524 0.443696 139.463 0.101074 140.605 0.101074C141.722 0.101074 142.635 0.443696 143.346 1.12894C144.082 1.7888 144.45 2.62632 144.45 3.64149C144.45 4.63129 144.082 5.46881 143.346 6.15405C142.635 6.81391 141.722 7.14384 140.605 7.14384ZM143.841 9.35185V30.5944H137.331V9.35185H143.841Z" fill="url(#paint7_linear_112_132)"/>
<path d="M147.264 19.935C147.264 17.7524 147.67 15.8363 148.482 14.1866C149.32 12.537 150.449 11.268 151.87 10.3797C153.292 9.49143 154.878 9.04729 156.629 9.04729C158.025 9.04729 159.294 9.33916 160.436 9.92288C161.603 10.5066 162.517 11.2934 163.177 12.2832V2.42329H169.687V30.5944H163.177V27.5488C162.568 28.564 161.692 29.3762 160.55 29.9853C159.433 30.5944 158.126 30.8989 156.629 30.8989C154.878 30.8989 153.292 30.4548 151.87 29.5665C150.449 28.6528 149.32 27.3712 148.482 25.7215C147.67 24.0465 147.264 22.1177 147.264 19.935ZM163.177 19.9731C163.177 18.3488 162.72 17.0672 161.806 16.1281C160.918 15.1891 159.827 14.7196 158.532 14.7196C157.238 14.7196 156.134 15.1891 155.22 16.1281C154.332 17.0418 153.888 18.3108 153.888 19.935C153.888 21.5593 154.332 22.8537 155.22 23.8181C156.134 24.7571 157.238 25.2266 158.532 25.2266C159.827 25.2266 160.918 24.7571 161.806 23.8181C162.72 22.879 163.177 21.5974 163.177 19.9731Z" fill="url(#paint8_linear_112_132)"/>
<defs>
<linearGradient id="paint0_linear_112_132" x1="10.4112" y1="30.8989" x2="206.894" y2="16.2509" gradientUnits="userSpaceOnUse">
<stop stop-color="#222532"/>
<stop offset="1" stop-color="#007BFF"/>
</linearGradient>
<linearGradient id="paint1_linear_112_132" x1="10.4112" y1="30.8989" x2="206.894" y2="16.2509" gradientUnits="userSpaceOnUse">
<stop stop-color="#222532"/>
<stop offset="1" stop-color="#007BFF"/>
</linearGradient>
<linearGradient id="paint2_linear_112_132" x1="10.4112" y1="30.8989" x2="206.894" y2="16.2509" gradientUnits="userSpaceOnUse">
<stop stop-color="#222532"/>
<stop offset="1" stop-color="#007BFF"/>
</linearGradient>
<linearGradient id="paint3_linear_112_132" x1="10.4112" y1="30.8989" x2="206.894" y2="16.2509" gradientUnits="userSpaceOnUse">
<stop stop-color="#222532"/>
<stop offset="1" stop-color="#007BFF"/>
</linearGradient>
<linearGradient id="paint4_linear_112_132" x1="10.4112" y1="30.8989" x2="206.894" y2="16.2509" gradientUnits="userSpaceOnUse">
<stop stop-color="#222532"/>
<stop offset="1" stop-color="#007BFF"/>
</linearGradient>
<linearGradient id="paint5_linear_112_132" x1="10.4112" y1="30.8989" x2="206.894" y2="16.2509" gradientUnits="userSpaceOnUse">
<stop stop-color="#222532"/>
<stop offset="1" stop-color="#007BFF"/>
</linearGradient>
<linearGradient id="paint6_linear_112_132" x1="10.4112" y1="30.8989" x2="206.894" y2="16.2509" gradientUnits="userSpaceOnUse">
<stop stop-color="#222532"/>
<stop offset="1" stop-color="#007BFF"/>
</linearGradient>
<linearGradient id="paint7_linear_112_132" x1="10.4112" y1="30.8989" x2="206.894" y2="16.2509" gradientUnits="userSpaceOnUse">
<stop stop-color="#222532"/>
<stop offset="1" stop-color="#007BFF"/>
</linearGradient>
<linearGradient id="paint8_linear_112_132" x1="10.4112" y1="30.8989" x2="206.894" y2="16.2509" gradientUnits="userSpaceOnUse">
<stop stop-color="#222532"/>
<stop offset="1" stop-color="#007BFF"/>
</linearGradient>
</defs>
</svg>
