<svg width="138" height="32" viewBox="0 0 138 32" fill="none" xmlns="http://www.w3.org/2000/svg">
<path d="M6.15122 3.64529V31.4065H0.583069V3.64529H6.15122Z" fill="url(#paint0_linear_72_645)"/>
<path d="M20.0843 31.7644C18.2813 31.7644 16.6639 31.4463 15.2321 30.8099C13.8003 30.147 12.6601 29.2588 11.8117 28.1451C10.9897 27.0315 10.5389 25.7986 10.4594 24.4463H16.0673C16.1734 25.2948 16.5844 25.9974 17.3003 26.5542C18.0427 27.1111 18.9574 27.3895 20.0446 27.3895C21.1052 27.3895 21.9271 27.1773 22.5105 26.7531C23.1203 26.3289 23.4252 25.7853 23.4252 25.1224C23.4252 24.4065 23.054 23.8762 22.3116 23.5315C21.5957 23.1603 20.4423 22.7626 18.8514 22.3384C17.2075 21.9406 15.8552 21.5297 14.7946 21.1054C13.7605 20.6812 12.859 20.0316 12.0901 19.1566C11.3476 18.2816 10.9764 17.1016 10.9764 15.6168C10.9764 14.3971 11.3211 13.2835 12.0105 12.2759C12.7264 11.2683 13.734 10.4729 15.0332 9.88957C16.359 9.30624 17.9101 9.01458 19.6866 9.01458C22.3116 9.01458 24.4063 9.67745 25.9707 11.0032C27.535 12.3024 28.3968 14.0657 28.5559 16.2929H23.2264C23.1468 15.4179 22.7756 14.7286 22.1127 14.2248C21.4764 13.6945 20.6146 13.4293 19.5275 13.4293C18.5199 13.4293 17.7378 13.6149 17.1809 13.9861C16.6506 14.3573 16.3855 14.8744 16.3855 15.5373C16.3855 16.2797 16.7567 16.8498 17.4991 17.2475C18.2415 17.6187 19.3949 18.0032 20.9593 18.4009C22.5502 18.7986 23.8627 19.2096 24.8968 19.6338C25.9309 20.0581 26.8191 20.7209 27.5616 21.6225C28.3305 22.4974 28.7282 23.6641 28.7547 25.1224C28.7547 26.3952 28.3968 27.5353 27.6809 28.5429C26.9915 29.5504 25.9839 30.3459 24.6582 30.9292C23.3589 31.486 21.8343 31.7644 20.0843 31.7644Z" fill="url(#paint1_linear_72_645)"/>
<path d="M38.8936 12.793C39.6095 11.6263 40.5375 10.7115 41.6777 10.0487C42.8443 9.38579 44.1701 9.05435 45.6549 9.05435V14.9009H44.1834C42.4334 14.9009 41.1076 15.3119 40.2061 16.1339C39.3311 16.9558 38.8936 18.3876 38.8936 20.4293V31.4065H33.3255V9.37253H38.8936V12.793Z" fill="url(#paint2_linear_72_645)"/>
<path d="M47.9736 20.31C47.9736 18.0827 48.4111 16.1073 49.286 14.3839C50.1876 12.6604 51.394 11.3346 52.9053 10.4066C54.4432 9.47859 56.1534 9.01458 58.036 9.01458C59.6799 9.01458 61.1117 9.34601 62.3314 10.0089C63.5776 10.6718 64.5719 11.507 65.3144 12.5146V9.37253H70.9223V31.4065H65.3144V28.1849C64.5985 29.219 63.6041 30.0807 62.3314 30.7701C61.0852 31.433 59.6402 31.7644 57.9962 31.7644C56.1402 31.7644 54.4432 31.2872 52.9053 30.3326C51.394 29.3781 50.1876 28.0391 49.286 26.3156C48.4111 24.5656 47.9736 22.5637 47.9736 20.31ZM65.3144 20.3895C65.3144 19.0372 65.0492 17.8838 64.5189 16.9293C63.9886 15.9482 63.2727 15.2058 62.3712 14.702C61.4697 14.1717 60.5019 13.9066 59.4678 13.9066C58.4337 13.9066 57.4792 14.1585 56.6042 14.6623C55.7292 15.1661 55.0133 15.9085 54.4565 16.8895C53.9262 17.8441 53.661 18.9842 53.661 20.31C53.661 21.6357 53.9262 22.8024 54.4565 23.8099C55.0133 24.791 55.7292 25.5467 56.6042 26.077C57.5057 26.6073 58.4602 26.8724 59.4678 26.8724C60.5019 26.8724 61.4697 26.6205 62.3712 26.1167C63.2727 25.5864 63.9886 24.844 64.5189 23.8895C65.0492 22.9084 65.3144 21.7418 65.3144 20.3895Z" fill="url(#paint3_linear_72_645)"/>
<path d="M93.3832 26.1167H82.3264L80.4969 31.4065H74.6503L84.6332 3.60551H91.1161L101.099 31.4065H95.2127L93.3832 26.1167ZM91.8718 21.6622L87.8548 10.0487L83.8378 21.6622H91.8718Z" fill="url(#paint4_linear_72_645)"/>
<path d="M107.654 6.74754C106.673 6.74754 105.851 6.44262 105.188 5.83278C104.552 5.19642 104.234 4.41422 104.234 3.4862C104.234 2.55817 104.552 1.78924 105.188 1.17939C105.851 0.543033 106.673 0.224854 107.654 0.224854C108.635 0.224854 109.444 0.543033 110.08 1.17939C110.743 1.78924 111.075 2.55817 111.075 3.4862C111.075 4.41422 110.743 5.19642 110.08 5.83278C109.444 6.44262 108.635 6.74754 107.654 6.74754ZM110.399 9.37253V31.4065H104.831V9.37253H110.399Z" fill="url(#paint5_linear_72_645)"/>
<path d="M114.468 20.31C114.468 18.0827 114.906 16.1073 115.781 14.3839C116.682 12.6604 117.902 11.3346 119.44 10.4066C120.978 9.47859 122.688 9.01458 124.57 9.01458C126.002 9.01458 127.368 9.33276 128.667 9.96911C129.966 10.579 131 11.4009 131.769 12.435V1.97484H137.417V31.4065H131.769V28.1451C131.08 29.2323 130.112 30.1073 128.866 30.7701C127.62 31.433 126.175 31.7644 124.531 31.7644C122.675 31.7644 120.978 31.2872 119.44 30.3326C117.902 29.3781 116.682 28.0391 115.781 26.3156C114.906 24.5656 114.468 22.5637 114.468 20.31ZM131.809 20.3895C131.809 19.0372 131.544 17.8838 131.014 16.9293C130.483 15.9482 129.767 15.2058 128.866 14.702C127.964 14.1717 126.997 13.9066 125.962 13.9066C124.928 13.9066 123.974 14.1585 123.099 14.6623C122.224 15.1661 121.508 15.9085 120.951 16.8895C120.421 17.8441 120.156 18.9842 120.156 20.31C120.156 21.6357 120.421 22.8024 120.951 23.8099C121.508 24.791 122.224 25.5467 123.099 26.077C124 26.6073 124.955 26.8724 125.962 26.8724C126.997 26.8724 127.964 26.6205 128.866 26.1167C129.767 25.5864 130.483 24.844 131.014 23.8895C131.544 22.9084 131.809 21.7418 131.809 20.3895Z" fill="url(#paint6_linear_72_645)"/>
<defs>
<linearGradient id="paint0_linear_72_645" x1="8.97859" y1="31.7645" x2="167.754" y2="22.4438" gradientUnits="userSpaceOnUse">
<stop stop-color="white"/>
<stop offset="1" stop-color="#007BFF"/>
</linearGradient>
<linearGradient id="paint1_linear_72_645" x1="8.97859" y1="31.7645" x2="167.754" y2="22.4438" gradientUnits="userSpaceOnUse">
<stop stop-color="white"/>
<stop offset="1" stop-color="#007BFF"/>
</linearGradient>
<linearGradient id="paint2_linear_72_645" x1="8.97859" y1="31.7645" x2="167.754" y2="22.4438" gradientUnits="userSpaceOnUse">
<stop stop-color="white"/>
<stop offset="1" stop-color="#007BFF"/>
</linearGradient>
<linearGradient id="paint3_linear_72_645" x1="8.97859" y1="31.7645" x2="167.754" y2="22.4438" gradientUnits="userSpaceOnUse">
<stop stop-color="white"/>
<stop offset="1" stop-color="#007BFF"/>
</linearGradient>
<linearGradient id="paint4_linear_72_645" x1="8.97859" y1="31.7645" x2="167.754" y2="22.4438" gradientUnits="userSpaceOnUse">
<stop stop-color="white"/>
<stop offset="1" stop-color="#007BFF"/>
</linearGradient>
<linearGradient id="paint5_linear_72_645" x1="8.97859" y1="31.7645" x2="167.754" y2="22.4438" gradientUnits="userSpaceOnUse">
<stop stop-color="white"/>
<stop offset="1" stop-color="#007BFF"/>
</linearGradient>
<linearGradient id="paint6_linear_72_645" x1="8.97859" y1="31.7645" x2="167.754" y2="22.4438" gradientUnits="userSpaceOnUse">
<stop stop-color="white"/>
<stop offset="1" stop-color="#007BFF"/>
</linearGradient>
</defs>
</svg>
