<svg width="137" height="33" viewBox="0 0 137 33" fill="none" xmlns="http://www.w3.org/2000/svg">
<g id="IsraelAid">
<path d="M5.56815 4.15066V31.9119H0V4.15066H5.56815Z" fill="url(#paint0_linear_3_786)"/>
<path d="M19.5013 32.2698C17.6982 32.2698 16.0808 31.9516 14.649 31.3153C13.2172 30.6524 12.0771 29.7641 11.2286 28.6505C10.4066 27.5369 9.95586 26.3039 9.87632 24.9517H15.4842C15.5903 25.8002 16.0013 26.5028 16.7172 27.0596C17.4596 27.6164 18.3744 27.8948 19.4615 27.8948C20.5221 27.8948 21.3441 27.6827 21.9274 27.2585C22.5372 26.8342 22.8422 26.2907 22.8422 25.6278C22.8422 24.9119 22.4709 24.3816 21.7285 24.0369C21.0126 23.6657 19.8592 23.268 18.2683 22.8437C16.6244 22.446 15.2721 22.035 14.2115 21.6108C13.1774 21.1865 12.2759 20.5369 11.507 19.6619C10.7646 18.7869 10.3934 17.607 10.3934 16.1222C10.3934 14.9025 10.7381 13.7889 11.4274 12.7813C12.1434 11.7737 13.1509 10.9783 14.4502 10.3949C15.7759 9.81161 17.327 9.51995 19.1035 9.51995C21.7285 9.51995 23.8232 10.1828 25.3876 11.5086C26.952 12.8078 27.8137 14.5711 27.9728 16.7983H22.6433C22.5637 15.9233 22.1925 15.2339 21.5297 14.7301C20.8933 14.1998 20.0316 13.9347 18.9445 13.9347C17.9369 13.9347 17.1547 14.1203 16.5979 14.4915C16.0676 14.8627 15.8024 15.3798 15.8024 16.0426C15.8024 16.7851 16.1736 17.3551 16.916 17.7529C17.6585 18.1241 18.8119 18.5085 20.3763 18.9063C21.9672 19.304 23.2796 19.715 24.3137 20.1392C25.3478 20.5634 26.2361 21.2263 26.9785 22.1278C27.7474 23.0028 28.1452 24.1695 28.1717 25.6278C28.1717 26.9005 27.8137 28.0407 27.0978 29.0482C26.4084 30.0558 25.4009 30.8513 24.0751 31.4346C22.7759 31.9914 21.2513 32.2698 19.5013 32.2698Z" fill="url(#paint1_linear_3_786)"/>
<path d="M38.3105 13.2983C39.0265 12.1317 39.9545 11.2169 41.0946 10.554C42.2613 9.89116 43.587 9.55972 45.0719 9.55972V15.4063H43.6003C41.8503 15.4063 40.5245 15.8173 39.623 16.6392C38.748 17.4612 38.3105 18.893 38.3105 20.9347V31.9119H32.7424V9.8779H38.3105V13.2983Z" fill="url(#paint2_linear_3_786)"/>
<path d="M47.3905 20.8153C47.3905 18.5881 47.828 16.6127 48.703 14.8892C49.6045 13.1658 50.8109 11.84 52.3223 10.912C53.8601 9.98396 55.5704 9.51995 57.4529 9.51995C59.0969 9.51995 60.5287 9.85138 61.7484 10.5143C62.9946 11.1771 63.9889 12.0124 64.7313 13.0199V9.8779H70.3392V31.9119H64.7313V28.6903C64.0154 29.7244 63.0211 30.5861 61.7484 31.2755C60.5022 31.9384 59.0571 32.2698 57.4132 32.2698C55.5571 32.2698 53.8601 31.7925 52.3223 30.838C50.8109 29.8835 49.6045 28.5445 48.703 26.821C47.828 25.071 47.3905 23.0691 47.3905 20.8153ZM64.7313 20.8949C64.7313 19.5426 64.4661 18.3892 63.9358 17.4347C63.4055 16.4536 62.6896 15.7112 61.7881 15.2074C60.8866 14.6771 59.9188 14.412 58.8847 14.412C57.8507 14.412 56.8961 14.6639 56.0211 15.1676C55.1461 15.6714 54.4302 16.4138 53.8734 17.3949C53.3431 18.3494 53.078 19.4896 53.078 20.8153C53.078 22.1411 53.3431 23.3077 53.8734 24.3153C54.4302 25.2964 55.1461 26.052 56.0211 26.5823C56.9226 27.1126 57.8772 27.3778 58.8847 27.3778C59.9188 27.3778 60.8866 27.1259 61.7881 26.6221C62.6896 26.0918 63.4055 25.3494 63.9358 24.3949C64.4661 23.4138 64.7313 22.2471 64.7313 20.8949Z" fill="url(#paint3_linear_3_786)"/>
<path d="M92.8001 26.6221H81.7434L79.9138 31.9119H74.0673L84.0502 4.11089H90.5331L100.516 31.9119H94.6296L92.8001 26.6221ZM91.2888 22.1676L87.2717 10.554L83.2547 22.1676H91.2888Z" fill="url(#paint4_linear_3_786)"/>
<path d="M107.071 7.25291C106.09 7.25291 105.268 6.94799 104.605 6.33815C103.969 5.70179 103.651 4.91959 103.651 3.99157C103.651 3.06354 103.969 2.29461 104.605 1.68476C105.268 1.0484 106.09 0.730225 107.071 0.730225C108.052 0.730225 108.861 1.0484 109.497 1.68476C110.16 2.29461 110.492 3.06354 110.492 3.99157C110.492 4.91959 110.16 5.70179 109.497 6.33815C108.861 6.94799 108.052 7.25291 107.071 7.25291ZM109.816 9.8779V31.9119H104.247V9.8779H109.816Z" fill="url(#paint5_linear_3_786)"/>
<path d="M113.885 20.8153C113.885 18.5881 114.323 16.6127 115.198 14.8892C116.099 13.1658 117.319 11.84 118.857 10.912C120.395 9.98396 122.105 9.51995 123.987 9.51995C125.419 9.51995 126.785 9.83813 128.084 10.4745C129.383 11.0843 130.417 11.9063 131.186 12.9404V2.48022H136.834V31.9119H131.186V28.6505C130.497 29.7376 129.529 30.6126 128.283 31.2755C127.037 31.9384 125.591 32.2698 123.948 32.2698C122.092 32.2698 120.395 31.7925 118.857 30.838C117.319 29.8835 116.099 28.5445 115.198 26.821C114.323 25.071 113.885 23.0691 113.885 20.8153ZM131.226 20.8949C131.226 19.5426 130.961 18.3892 130.43 17.4347C129.9 16.4536 129.184 15.7112 128.283 15.2074C127.381 14.6771 126.413 14.412 125.379 14.412C124.345 14.412 123.391 14.6639 122.516 15.1676C121.641 15.6714 120.925 16.4138 120.368 17.3949C119.838 18.3494 119.573 19.4896 119.573 20.8153C119.573 22.1411 119.838 23.3077 120.368 24.3153C120.925 25.2964 121.641 26.052 122.516 26.5823C123.417 27.1126 124.372 27.3778 125.379 27.3778C126.413 27.3778 127.381 27.1259 128.283 26.6221C129.184 26.0918 129.9 25.3494 130.43 24.3949C130.961 23.4138 131.226 22.2471 131.226 20.8949Z" fill="url(#paint6_linear_3_786)"/>
</g>
<defs>
<linearGradient id="paint0_linear_3_786" x1="8.39552" y1="32.2698" x2="167.171" y2="22.9491" gradientUnits="userSpaceOnUse">
<stop stop-color="#222532"/>
<stop offset="1" stop-color="#007BFF"/>
</linearGradient>
<linearGradient id="paint1_linear_3_786" x1="8.39552" y1="32.2698" x2="167.171" y2="22.9491" gradientUnits="userSpaceOnUse">
<stop stop-color="#222532"/>
<stop offset="1" stop-color="#007BFF"/>
</linearGradient>
<linearGradient id="paint2_linear_3_786" x1="8.39552" y1="32.2698" x2="167.171" y2="22.9491" gradientUnits="userSpaceOnUse">
<stop stop-color="#222532"/>
<stop offset="1" stop-color="#007BFF"/>
</linearGradient>
<linearGradient id="paint3_linear_3_786" x1="8.39552" y1="32.2698" x2="167.171" y2="22.9491" gradientUnits="userSpaceOnUse">
<stop stop-color="#222532"/>
<stop offset="1" stop-color="#007BFF"/>
</linearGradient>
<linearGradient id="paint4_linear_3_786" x1="8.39552" y1="32.2698" x2="167.171" y2="22.9491" gradientUnits="userSpaceOnUse">
<stop stop-color="#222532"/>
<stop offset="1" stop-color="#007BFF"/>
</linearGradient>
<linearGradient id="paint5_linear_3_786" x1="8.39552" y1="32.2698" x2="167.171" y2="22.9491" gradientUnits="userSpaceOnUse">
<stop stop-color="#222532"/>
<stop offset="1" stop-color="#007BFF"/>
</linearGradient>
<linearGradient id="paint6_linear_3_786" x1="8.39552" y1="32.2698" x2="167.171" y2="22.9491" gradientUnits="userSpaceOnUse">
<stop stop-color="#222532"/>
<stop offset="1" stop-color="#007BFF"/>
</linearGradient>
</defs>
</svg>
